<svg width="20" height="20" viewBox="0 0 20 20" fill="none" xmlns="http://www.w3.org/2000/svg">
<path d="M17.0383 8.85419C16.9729 8.84335 16.9066 8.83835 16.8403 8.83923H5.55262L5.79875 8.72242C6.03934 8.60624 6.25821 8.44812 6.44556 8.25522L9.61091 5.02567C10.0278 4.61964 10.0978 3.96647 9.7769 3.47806C9.40338 2.9576 8.68706 2.8446 8.17691 3.2257C8.1357 3.2565 8.09653 3.29008 8.05972 3.32622L2.33576 9.16627C1.88843 9.62216 1.88803 10.3617 2.33486 10.8181C2.33515 10.8184 2.33547 10.8187 2.33576 10.819L8.05972 16.6591C8.5074 17.1145 9.23223 17.1135 9.6787 16.6568C9.71383 16.6208 9.74664 16.5826 9.7769 16.5423C10.0978 16.0538 10.0278 15.4007 9.61091 14.9946L6.45128 11.7593C6.28332 11.5877 6.09021 11.4439 5.87889 11.3329L5.53545 11.1752H16.7773C17.3621 11.1974 17.8752 10.7806 17.9851 10.1941C18.0863 9.55737 17.6624 8.95749 17.0383 8.85419Z" fill="#414141"/>
</svg>
