<svg width="20" height="20" viewBox="0 0 20 20" fill="none" xmlns="http://www.w3.org/2000/svg">
<path d="M14.7879 3.26507L9.66668 8.3863L4.54534 3.26496C4.19204 2.91166 3.61838 2.91166 3.26497 3.26507C2.91168 3.61837 2.91168 4.19203 3.26497 4.54532L8.38631 9.66667L3.26497 14.788C2.91168 15.1413 2.91168 15.715 3.26497 16.0683C3.61838 16.4217 4.19204 16.4217 4.54534 16.0684L9.66668 10.947L14.7879 16.0683C15.1413 16.4217 15.715 16.4217 16.0683 16.0684C16.4217 15.715 16.4217 15.1413 16.0683 14.7879L10.947 9.66667L16.0683 4.54544C16.4217 4.19203 16.4217 3.61837 16.0683 3.26496C15.715 2.91166 15.1413 2.91166 14.7879 3.26507Z" fill="#D4D4D4"/>
</svg>
